<mxfile host="65bd71144e">
    <diagram id="orderSystem" name="BBショップ注文管理システム">
        <mxGraphModel dx="1034" dy="583" grid="1" gridSize="10" guides="1" tooltips="1" connect="1" arrows="1" fold="1" page="1" pageScale="1" pageWidth="827" pageHeight="1169" math="0" shadow="0">
            <root>
                <mxCell id="0"/>
                <mxCell id="1" parent="0"/>
                <mxCell id="website" value="BBショップWebサイト" style="shape=rectangle;rounded=1;whiteSpace=wrap;html=1;fillColor=#d5e8d4;strokeColor=#82b366;" parent="1" vertex="1">
                    <mxGeometry x="31" y="140" width="160" height="60" as="geometry"/>
                </mxCell>
                <mxCell id="orderSystemBox" value="注文管理システム&#xa;(注文発生～発送完了管理)" style="shape=rectangle;rounded=1;whiteSpace=wrap;html=1;fillColor=#dae8fc;strokeColor=#6c8ebf;" parent="1" vertex="1">
                    <mxGeometry x="350" y="300" width="220" height="80" as="geometry"/>
                </mxCell>
                <mxCell id="payment" value="決済システム&#xa;(クレジットカードのみ)" style="shape=rectangle;rounded=1;whiteSpace=wrap;html=1;fillColor=#f8cecc;strokeColor=#b85450;" parent="1" vertex="1">
                    <mxGeometry x="318" y="490" width="200" height="60" as="geometry"/>
                </mxCell>
                <mxCell id="shipping" value="発送管理&#xa;(国内のみ)" style="shape=rectangle;rounded=1;whiteSpace=wrap;html=1;fillColor=#dae8fc;strokeColor=#6c8ebf;" parent="1" vertex="1">
                    <mxGeometry x="590" y="110" width="150" height="60" as="geometry"/>
                </mxCell>
                <mxCell id="return" value="返品処理&lt;br&gt;(到着後10日以内)" style="shape=rectangle;rounded=1;whiteSpace=wrap;html=1;fillColor=#dae8fc;strokeColor=#6c8ebf;" parent="1" vertex="1">
                    <mxGeometry x="800" y="522" width="170" height="80" as="geometry"/>
                </mxCell>
                <mxCell id="edge1" style="exitX=0.5;exitY=0;exitDx=0;exitDy=0;exitPerimeter=0;entryX=0.203;entryY=0.986;entryDx=0;entryDy=0;entryPerimeter=0;" parent="1" source="uSMqebVrDV0d1Eh629MW-26" target="website" edge="1">
                    <mxGeometry relative="1" as="geometry">
                        <mxPoint x="214.92592592592587" y="545" as="sourcePoint"/>
                    </mxGeometry>
                </mxCell>
                <mxCell id="uSMqebVrDV0d1Eh629MW-1" value="商品の閲覧" style="edgeLabel;html=1;align=center;verticalAlign=middle;resizable=0;points=[];" parent="edge1" vertex="1" connectable="0">
                    <mxGeometry x="-0.1164" y="-3" relative="1" as="geometry">
                        <mxPoint as="offset"/>
                    </mxGeometry>
                </mxCell>
                <mxCell id="edge2" style="exitX=1.01;exitY=0.892;exitDx=0;exitDy=0;exitPerimeter=0;" parent="1" source="website" target="orderSystemBox" edge="1">
                    <mxGeometry relative="1" as="geometry"/>
                </mxCell>
                <mxCell id="uSMqebVrDV0d1Eh629MW-2" value="注文情報の送信" style="edgeLabel;html=1;align=center;verticalAlign=middle;resizable=0;points=[];" parent="edge2" vertex="1" connectable="0">
                    <mxGeometry x="0.289" relative="1" as="geometry">
                        <mxPoint as="offset"/>
                    </mxGeometry>
                </mxCell>
                <mxCell id="edge3" style="exitX=0.356;exitY=1.046;exitDx=0;exitDy=0;exitPerimeter=0;entryX=0.553;entryY=-0.017;entryDx=0;entryDy=0;entryPerimeter=0;" parent="1" source="orderSystemBox" target="payment" edge="1">
                    <mxGeometry relative="1" as="geometry"/>
                </mxCell>
                <mxCell id="uSMqebVrDV0d1Eh629MW-4" value="Text" style="edgeLabel;html=1;align=center;verticalAlign=middle;resizable=0;points=[];" parent="edge3" vertex="1" connectable="0">
                    <mxGeometry x="-0.1834" y="1" relative="1" as="geometry">
                        <mxPoint as="offset"/>
                    </mxGeometry>
                </mxCell>
                <mxCell id="uSMqebVrDV0d1Eh629MW-5" value="決済処理依頼" style="edgeLabel;html=1;align=center;verticalAlign=middle;resizable=0;points=[];" parent="edge3" vertex="1" connectable="0">
                    <mxGeometry x="-0.1834" y="1" relative="1" as="geometry">
                        <mxPoint as="offset"/>
                    </mxGeometry>
                </mxCell>
                <mxCell id="edge4" style="exitX=0.933;exitY=0.02;exitDx=0;exitDy=0;exitPerimeter=0;entryX=0.419;entryY=1.053;entryDx=0;entryDy=0;entryPerimeter=0;" parent="1" source="orderSystemBox" target="shipping" edge="1">
                    <mxGeometry relative="1" as="geometry"/>
                </mxCell>
                <mxCell id="uSMqebVrDV0d1Eh629MW-10" value="出荷指示（注文内容・配送先)" style="edgeLabel;html=1;align=center;verticalAlign=middle;resizable=0;points=[];" parent="edge4" vertex="1" connectable="0">
                    <mxGeometry x="-0.0265" y="-2" relative="1" as="geometry">
                        <mxPoint x="1" as="offset"/>
                    </mxGeometry>
                </mxCell>
                <mxCell id="edge5" style="exitX=1;exitY=1;exitDx=0;exitDy=0;" parent="1" source="orderSystemBox" target="return" edge="1">
                    <mxGeometry relative="1" as="geometry"/>
                </mxCell>
                <mxCell id="uSMqebVrDV0d1Eh629MW-3" value="返品情報連携" style="edgeLabel;html=1;align=center;verticalAlign=middle;resizable=0;points=[];" parent="edge5" vertex="1" connectable="0">
                    <mxGeometry x="-0.0837" relative="1" as="geometry">
                        <mxPoint as="offset"/>
                    </mxGeometry>
                </mxCell>
                <mxCell id="edge6" style="" parent="1" source="uSMqebVrDV0d1Eh629MW-57" target="orderSystemBox" edge="1">
                    <mxGeometry relative="1" as="geometry">
                        <mxPoint x="810" y="323.52941176470597" as="sourcePoint"/>
                    </mxGeometry>
                </mxCell>
                <mxCell id="uSMqebVrDV0d1Eh629MW-16" value="注文・在庫状況の確認" style="edgeLabel;html=1;align=center;verticalAlign=middle;resizable=0;points=[];" parent="edge6" vertex="1" connectable="0">
                    <mxGeometry x="-0.0657" y="4" relative="1" as="geometry">
                        <mxPoint as="offset"/>
                    </mxGeometry>
                </mxCell>
                <mxCell id="edge7" style="exitX=0.181;exitY=0.278;exitDx=0;exitDy=0;exitPerimeter=0;" parent="1" source="uSMqebVrDV0d1Eh629MW-57" target="shipping" edge="1">
                    <mxGeometry relative="1" as="geometry">
                        <mxPoint x="848.3333333333335" y="290.0000000000001" as="sourcePoint"/>
                    </mxGeometry>
                </mxCell>
                <mxCell id="uSMqebVrDV0d1Eh629MW-51" value="発送状況の確認" style="edgeLabel;html=1;align=center;verticalAlign=middle;resizable=0;points=[];" parent="edge7" vertex="1" connectable="0">
                    <mxGeometry x="0.081" y="1" relative="1" as="geometry">
                        <mxPoint as="offset"/>
                    </mxGeometry>
                </mxCell>
                <mxCell id="edge8" style="" parent="1" source="uSMqebVrDV0d1Eh629MW-57" target="return" edge="1">
                    <mxGeometry relative="1" as="geometry">
                        <mxPoint x="885" y="350.0000000000001" as="sourcePoint"/>
                    </mxGeometry>
                </mxCell>
                <mxCell id="uSMqebVrDV0d1Eh629MW-17" value="返品状況の確認、返金指示" style="edgeLabel;html=1;align=center;verticalAlign=middle;resizable=0;points=[];" parent="edge8" vertex="1" connectable="0">
                    <mxGeometry x="-0.3469" y="-1" relative="1" as="geometry">
                        <mxPoint as="offset"/>
                    </mxGeometry>
                </mxCell>
                <mxCell id="uSMqebVrDV0d1Eh629MW-6" style="entryX=0.081;entryY=0.994;entryDx=0;entryDy=0;entryPerimeter=0;exitX=0.25;exitY=0;exitDx=0;exitDy=0;" parent="1" source="payment" target="orderSystemBox" edge="1">
                    <mxGeometry relative="1" as="geometry">
                        <mxPoint x="319" y="390" as="sourcePoint"/>
                        <mxPoint x="240" y="450" as="targetPoint"/>
                    </mxGeometry>
                </mxCell>
                <mxCell id="uSMqebVrDV0d1Eh629MW-7" value="決済結果の通知" style="edgeLabel;html=1;align=center;verticalAlign=middle;resizable=0;points=[];" parent="uSMqebVrDV0d1Eh629MW-6" vertex="1" connectable="0">
                    <mxGeometry x="-0.1834" y="1" relative="1" as="geometry">
                        <mxPoint as="offset"/>
                    </mxGeometry>
                </mxCell>
                <mxCell id="uSMqebVrDV0d1Eh629MW-13" style="exitX=0;exitY=0.5;exitDx=0;exitDy=0;" parent="1" source="shipping" edge="1">
                    <mxGeometry relative="1" as="geometry">
                        <mxPoint x="460" y="307" as="sourcePoint"/>
                        <mxPoint x="460" y="297" as="targetPoint"/>
                    </mxGeometry>
                </mxCell>
                <mxCell id="uSMqebVrDV0d1Eh629MW-14" value="&lt;span style=&quot;color: rgba(0, 0, 0, 0); font-family: monospace; font-size: 0px; text-align: start; background-color: rgb(236, 236, 236);&quot;&gt;%3CmxGraphModel%3E%3Croot%3E%3CmxCell%20id%3D%220%22%2F%3E%3CmxCell%20id%3D%221%22%20parent%3D%220%22%2F%3E%3CmxCell%20id%3D%222%22%20style%3D%22exitX%3D0.818%3BexitY%3D-0.043%3BexitDx%3D0%3BexitDy%3D0%3BexitPerimeter%3D0%3B%22%20edge%3D%221%22%20parent%3D%221%22%3E%3CmxGeometry%20relative%3D%221%22%20as%3D%22geometry%22%3E%3CmxPoint%20x%3D%22530%22%20y%3D%22297%22%20as%3D%22sourcePoint%22%2F%3E%3CmxPoint%20x%3D%22602%22%20y%3D%22130%22%20as%3D%22targetPoint%22%2F%3E%3C%2FmxGeometry%3E%3C%2FmxCell%3E%3CmxCell%20id%3D%223%22%20value%3D%22%E5%87%BA%E8%8D%B7%E6%8C%87%E7%A4%BA%EF%BC%88%E6%B3%A8%E6%96%87%E5%86%85%E5%AE%B9%E3%83%BB%E9%85%8D%E9%80%81%E5%85%88)%22%20style%3D%22edgeLabel%3Bhtml%3D1%3Balign%3Dcenter%3BverticalAlign%3Dmiddle%3Bresizable%3D0%3Bpoints%3D%5B%5D%3B%22%20vertex%3D%221%22%20connectable%3D%220%22%20parent%3D%222%22%3E%3CmxGeometry%20x%3D%22-0.0265%22%20y%3D%22-2%22%20relative%3D%221%22%20as%3D%22geometry%22%3E%3CmxPoint%20x%3D%221%22%20as%3D%22offset%22%2F%3E%3C%2FmxGeometry%3E%3C%2FmxCell%3E%3C%2Froot%3E%3C%2FmxGraphModel%3E&lt;/span&gt;" style="edgeLabel;html=1;align=center;verticalAlign=middle;resizable=0;points=[];" parent="uSMqebVrDV0d1Eh629MW-13" vertex="1" connectable="0">
                    <mxGeometry x="-0.0265" y="-2" relative="1" as="geometry">
                        <mxPoint x="1" as="offset"/>
                    </mxGeometry>
                </mxCell>
                <mxCell id="uSMqebVrDV0d1Eh629MW-15" value="発送完了通知" style="edgeLabel;html=1;align=center;verticalAlign=middle;resizable=0;points=[];" parent="uSMqebVrDV0d1Eh629MW-13" vertex="1" connectable="0">
                    <mxGeometry x="-0.0993" y="3" relative="1" as="geometry">
                        <mxPoint y="1" as="offset"/>
                    </mxGeometry>
                </mxCell>
                <mxCell id="uSMqebVrDV0d1Eh629MW-18" style="entryX=0.667;entryY=1.03;entryDx=0;entryDy=0;exitX=-0.015;exitY=0.603;exitDx=0;exitDy=0;exitPerimeter=0;entryPerimeter=0;" parent="1" source="return" target="orderSystemBox" edge="1">
                    <mxGeometry relative="1" as="geometry">
                        <mxPoint x="790" y="480" as="sourcePoint"/>
                        <mxPoint x="890" y="546" as="targetPoint"/>
                    </mxGeometry>
                </mxCell>
                <mxCell id="uSMqebVrDV0d1Eh629MW-19" value="&lt;span style=&quot;color: rgba(0, 0, 0, 0); font-family: monospace; font-size: 0px; text-align: start; background-color: rgb(236, 236, 236);&quot;&gt;%3CmxGraphModel%3E%3Croot%3E%3CmxCell%20id%3D%220%22%2F%3E%3CmxCell%20id%3D%221%22%20parent%3D%220%22%2F%3E%3CmxCell%20id%3D%222%22%20edge%3D%221%22%20parent%3D%221%22%3E%3CmxGeometry%20relative%3D%221%22%20as%3D%22geometry%22%3E%3CmxPoint%20x%3D%22570%22%20y%3D%22376%22%20as%3D%22sourcePoint%22%2F%3E%3CmxPoint%20x%3D%22800%22%20y%3D%22452%22%20as%3D%22targetPoint%22%2F%3E%3C%2FmxGeometry%3E%3C%2FmxCell%3E%3CmxCell%20id%3D%223%22%20value%3D%22%E8%BF%94%E5%93%81%E4%BE%9D%E9%A0%BC%E3%81%AE%E9%80%9A%E7%9F%A5%22%20style%3D%22edgeLabel%3Bhtml%3D1%3Balign%3Dcenter%3BverticalAlign%3Dmiddle%3Bresizable%3D0%3Bpoints%3D%5B%5D%3B%22%20vertex%3D%221%22%20connectable%3D%220%22%20parent%3D%222%22%3E%3CmxGeometry%20x%3D%22-0.0837%22%20relative%3D%221%22%20as%3D%22geometry%22%3E%3CmxPoint%20as%3D%22offset%22%2F%3E%3C%2FmxGeometry%3E%3C%2FmxCell%3E%3C%2Froot%3E%3C%2FmxGraphModel%3E&lt;/span&gt;" style="edgeLabel;html=1;align=center;verticalAlign=middle;resizable=0;points=[];" parent="uSMqebVrDV0d1Eh629MW-18" vertex="1" connectable="0">
                    <mxGeometry x="-0.0837" relative="1" as="geometry">
                        <mxPoint as="offset"/>
                    </mxGeometry>
                </mxCell>
                <mxCell id="uSMqebVrDV0d1Eh629MW-20" value="返品受付&lt;div&gt;返品不可の検証&lt;/div&gt;" style="edgeLabel;html=1;align=center;verticalAlign=middle;resizable=0;points=[];" parent="uSMqebVrDV0d1Eh629MW-18" vertex="1" connectable="0">
                    <mxGeometry x="-0.0515" relative="1" as="geometry">
                        <mxPoint x="-1" as="offset"/>
                    </mxGeometry>
                </mxCell>
                <mxCell id="uSMqebVrDV0d1Eh629MW-23" style="entryX=-0.015;entryY=0.895;entryDx=0;entryDy=0;entryPerimeter=0;exitX=0.844;exitY=0.824;exitDx=0;exitDy=0;exitPerimeter=0;" parent="1" source="uSMqebVrDV0d1Eh629MW-26" target="return" edge="1">
                    <mxGeometry relative="1" as="geometry">
                        <mxPoint x="275" y="570" as="sourcePoint"/>
                        <mxPoint x="402" y="600" as="targetPoint"/>
                    </mxGeometry>
                </mxCell>
                <mxCell id="uSMqebVrDV0d1Eh629MW-24" value="返品依頼" style="edgeLabel;html=1;align=center;verticalAlign=middle;resizable=0;points=[];" parent="uSMqebVrDV0d1Eh629MW-23" vertex="1" connectable="0">
                    <mxGeometry x="-0.1834" y="1" relative="1" as="geometry">
                        <mxPoint as="offset"/>
                    </mxGeometry>
                </mxCell>
                <mxCell id="uSMqebVrDV0d1Eh629MW-26" value="ユーザー" style="shape=umlActor;verticalLabelPosition=bottom;verticalAlign=top;html=1;outlineConnect=0;" parent="1" vertex="1">
                    <mxGeometry x="41" y="529" width="46" height="80" as="geometry"/>
                </mxCell>
                <mxCell id="uSMqebVrDV0d1Eh629MW-29" value="ユーザー認証(ログイン)" style="rounded=0;whiteSpace=wrap;html=1;fillColor=#d5e8d4;strokeColor=#82b366;" parent="1" vertex="1">
                    <mxGeometry x="140" y="340" width="140" height="60" as="geometry"/>
                </mxCell>
                <mxCell id="uSMqebVrDV0d1Eh629MW-32" style="exitX=0.25;exitY=0;exitDx=0;exitDy=0;entryX=0.891;entryY=1.044;entryDx=0;entryDy=0;entryPerimeter=0;" parent="1" source="uSMqebVrDV0d1Eh629MW-29" target="website" edge="1">
                    <mxGeometry relative="1" as="geometry">
                        <mxPoint x="180" y="310" as="sourcePoint"/>
                        <mxPoint x="180" y="200" as="targetPoint"/>
                    </mxGeometry>
                </mxCell>
                <mxCell id="uSMqebVrDV0d1Eh629MW-33" value="商品の選択、注文情報の入力" style="edgeLabel;html=1;align=center;verticalAlign=middle;resizable=0;points=[];" parent="uSMqebVrDV0d1Eh629MW-32" vertex="1" connectable="0">
                    <mxGeometry x="-0.1834" y="1" relative="1" as="geometry">
                        <mxPoint as="offset"/>
                    </mxGeometry>
                </mxCell>
                <mxCell id="uSMqebVrDV0d1Eh629MW-34" style="entryX=0.25;entryY=1;entryDx=0;entryDy=0;exitX=1;exitY=0.3333333333333333;exitDx=0;exitDy=0;exitPerimeter=0;" parent="1" source="uSMqebVrDV0d1Eh629MW-26" edge="1">
                    <mxGeometry relative="1" as="geometry">
                        <mxPoint x="107" y="560" as="sourcePoint"/>
                        <mxPoint x="172" y="400" as="targetPoint"/>
                        <Array as="points">
                            <mxPoint x="172" y="560"/>
                        </Array>
                    </mxGeometry>
                </mxCell>
                <mxCell id="uSMqebVrDV0d1Eh629MW-50" value="ログイン" style="edgeLabel;html=1;align=center;verticalAlign=middle;resizable=0;points=[];" parent="uSMqebVrDV0d1Eh629MW-34" vertex="1" connectable="0">
                    <mxGeometry x="0.2874" y="-3" relative="1" as="geometry">
                        <mxPoint as="offset"/>
                    </mxGeometry>
                </mxCell>
                <mxCell id="uSMqebVrDV0d1Eh629MW-37" value="&lt;font style=&quot;font-size: 16px;&quot;&gt;売るもの: 本&lt;/font&gt;" style="text;html=1;align=center;verticalAlign=middle;resizable=0;points=[];autosize=1;strokeColor=none;fillColor=default;" parent="1" vertex="1">
                    <mxGeometry x="295" y="106" width="110" height="30" as="geometry"/>
                </mxCell>
                <mxCell id="uSMqebVrDV0d1Eh629MW-44" value="注文キャンセル処理&lt;br&gt;(発送前のみ)" style="shape=rectangle;rounded=1;whiteSpace=wrap;html=1;fillColor=#dae8fc;strokeColor=#6c8ebf;" parent="1" vertex="1">
                    <mxGeometry x="605" y="630" width="170" height="80" as="geometry"/>
                </mxCell>
                <mxCell id="uSMqebVrDV0d1Eh629MW-45" value="" style="endArrow=none;html=1;rounded=0;exitX=0.75;exitY=0;exitDx=0;exitDy=0;" parent="1" source="uSMqebVrDV0d1Eh629MW-44" edge="1">
                    <mxGeometry width="50" height="50" relative="1" as="geometry">
                        <mxPoint x="480" y="570" as="sourcePoint"/>
                        <mxPoint x="732" y="530" as="targetPoint"/>
                    </mxGeometry>
                </mxCell>
                <mxCell id="uSMqebVrDV0d1Eh629MW-46" value="" style="endArrow=classic;html=1;rounded=0;exitX=0;exitY=0.25;exitDx=0;exitDy=0;entryX=0.814;entryY=0.962;entryDx=0;entryDy=0;entryPerimeter=0;" parent="1" source="uSMqebVrDV0d1Eh629MW-44" target="payment" edge="1">
                    <mxGeometry width="50" height="50" relative="1" as="geometry">
                        <mxPoint x="480" y="570" as="sourcePoint"/>
                        <mxPoint x="530" y="520" as="targetPoint"/>
                        <Array as="points">
                            <mxPoint x="480" y="650"/>
                        </Array>
                    </mxGeometry>
                </mxCell>
                <mxCell id="uSMqebVrDV0d1Eh629MW-47" value="決済取消依頼" style="edgeLabel;html=1;align=center;verticalAlign=middle;resizable=0;points=[];" parent="uSMqebVrDV0d1Eh629MW-46" vertex="1" connectable="0">
                    <mxGeometry x="0.0666" y="2" relative="1" as="geometry">
                        <mxPoint as="offset"/>
                    </mxGeometry>
                </mxCell>
                <mxCell id="uSMqebVrDV0d1Eh629MW-48" value="" style="endArrow=classic;html=1;rounded=0;entryX=1;entryY=0.5;entryDx=0;entryDy=0;" parent="1" target="payment" edge="1">
                    <mxGeometry width="50" height="50" relative="1" as="geometry">
                        <mxPoint x="790" y="550" as="sourcePoint"/>
                        <mxPoint x="580" y="410" as="targetPoint"/>
                    </mxGeometry>
                </mxCell>
                <mxCell id="uSMqebVrDV0d1Eh629MW-49" value="返金処理依頼" style="edgeLabel;html=1;align=center;verticalAlign=middle;resizable=0;points=[];" parent="uSMqebVrDV0d1Eh629MW-48" vertex="1" connectable="0">
                    <mxGeometry x="-0.0527" y="1" relative="1" as="geometry">
                        <mxPoint as="offset"/>
                    </mxGeometry>
                </mxCell>
                <mxCell id="uSMqebVrDV0d1Eh629MW-55" value="" style="endArrow=classic;html=1;rounded=0;entryX=0;entryY=0.75;entryDx=0;entryDy=0;exitX=1;exitY=1;exitDx=0;exitDy=0;exitPerimeter=0;" parent="1" source="uSMqebVrDV0d1Eh629MW-26" target="uSMqebVrDV0d1Eh629MW-44" edge="1">
                    <mxGeometry width="50" height="50" relative="1" as="geometry">
                        <mxPoint x="70" y="610" as="sourcePoint"/>
                        <mxPoint x="290" y="645" as="targetPoint"/>
                        <Array as="points">
                            <mxPoint x="220" y="690"/>
                        </Array>
                    </mxGeometry>
                </mxCell>
                <mxCell id="uSMqebVrDV0d1Eh629MW-56" value="キャンセル依頼(発送前)" style="edgeLabel;html=1;align=center;verticalAlign=middle;resizable=0;points=[];" parent="uSMqebVrDV0d1Eh629MW-55" vertex="1" connectable="0">
                    <mxGeometry x="0.0453" y="5" relative="1" as="geometry">
                        <mxPoint as="offset"/>
                    </mxGeometry>
                </mxCell>
                <mxCell id="uSMqebVrDV0d1Eh629MW-57" value="管理者(ショップ運営)" style="shape=umlActor;verticalLabelPosition=bottom;verticalAlign=top;html=1;" parent="1" vertex="1">
                    <mxGeometry x="861.5" y="270" width="47" height="72" as="geometry"/>
                </mxCell>
                <mxCell id="3" value="&lt;span style=&quot;color: rgb(63, 63, 63); scrollbar-color: rgb(226, 226, 226) rgb(251, 251, 251); text-wrap-mode: nowrap; background-color: rgb(255, 255, 255);&quot;&gt;　※青＝管理者側&lt;/span&gt;&lt;div style=&quot;color: rgb(63, 63, 63); scrollbar-color: rgb(226, 226, 226) rgb(251, 251, 251); text-wrap-mode: nowrap;&quot;&gt;&lt;span style=&quot;color: rgb(63, 63, 63); scrollbar-color: rgb(226, 226, 226) rgb(251, 251, 251); background-color: rgb(255, 255, 255);&quot;&gt;　　　緑＝ユーザー側&lt;/span&gt;&lt;/div&gt;&lt;div style=&quot;color: rgb(63, 63, 63); scrollbar-color: rgb(226, 226, 226) rgb(251, 251, 251); text-wrap-mode: nowrap;&quot;&gt;&lt;span style=&quot;background-color: light-dark(rgb(255, 255, 255), rgb(18, 18, 18));&quot;&gt;赤＝中立&lt;/span&gt;&lt;/div&gt;" style="shape=hexagon;perimeter=hexagonPerimeter2;whiteSpace=wrap;html=1;fixedSize=1;fontStyle=1;fontSize=15;" parent="1" vertex="1">
                    <mxGeometry x="98" y="20" width="160" height="100" as="geometry"/>
                </mxCell>
                <mxCell id="4" value="運送業者" style="shape=umlActor;verticalLabelPosition=bottom;verticalAlign=top;html=1;" vertex="1" parent="1">
                    <mxGeometry x="1010" y="270" width="47" height="72" as="geometry"/>
                </mxCell>
                <mxCell id="7" value="" style="endArrow=classic;html=1;" edge="1" parent="1" source="uSMqebVrDV0d1Eh629MW-57">
                    <mxGeometry width="50" height="50" relative="1" as="geometry">
                        <mxPoint x="850" y="390" as="sourcePoint"/>
                        <mxPoint x="1000" y="300" as="targetPoint"/>
                    </mxGeometry>
                </mxCell>
                <mxCell id="9" value="カード会社" style="shape=umlActor;verticalLabelPosition=bottom;verticalAlign=top;html=1;" vertex="1" parent="1">
                    <mxGeometry x="1080" y="270" width="47" height="72" as="geometry"/>
                </mxCell>
                <mxCell id="10" value="返品処理業者" style="shape=umlActor;verticalLabelPosition=bottom;verticalAlign=top;html=1;" vertex="1" parent="1">
                    <mxGeometry x="1160" y="270" width="47" height="73" as="geometry"/>
                </mxCell>
                <mxCell id="11" value="など" style="text;html=1;align=center;verticalAlign=middle;resizable=0;points=[];autosize=1;strokeColor=none;fillColor=none;" vertex="1" parent="1">
                    <mxGeometry x="1240" y="340" width="50" height="30" as="geometry"/>
                </mxCell>
            </root>
        </mxGraphModel>
    </diagram>
</mxfile>